<svg
   viewBox="0 0 101 88"
   fill="none"
   version="1.1"
   id="svg6"
   xmlns="http://www.w3.org/2000/svg"
   xmlns:svg="http://www.w3.org/2000/svg">
   <path
      d="M 85.499731,61.774157 73.823914,73.972798 c -0.253779,0.264985 -0.56092,0.476257 -0.902164,0.620654 -0.341243,0.144397 -0.709377,0.218836 -1.081363,0.218626 H 16.491622 c -0.264102,0 -0.522446,-0.0752 -0.743291,-0.216246 -0.220848,-0.141105 -0.394578,-0.341944 -0.499846,-0.577935 -0.105267,-0.235923 -0.137488,-0.496706 -0.09269,-0.750275 0.04478,-0.253569 0.16463,-0.488862 0.344804,-0.676956 l 11.684547,-12.19864 c 0.25315,-0.264284 0.559238,-0.475137 0.899363,-0.619464 0.340193,-0.144395 0.707137,-0.219186 1.078213,-0.219814 h 55.345703 c 0.264075,0 0.522404,0.0752 0.743412,0.216243 0.220585,0.141106 0.394253,0.342014 0.499996,0.577937 0.10504,0.235992 0.137253,0.496704 0.09245,0.750275 -0.04482,0.253568 -0.164564,0.488861 -0.344534,0.676954 z M 73.823914,37.209579 C 73.570135,36.944595 73.262994,36.733322 72.92175,36.588925 72.580507,36.444598 72.212373,36.37016 71.840387,36.370369 H 16.491622 c -0.264102,0 -0.522446,0.07513 -0.743291,0.216245 -0.220848,0.141105 -0.394578,0.341944 -0.499846,0.577867 -0.105267,0.235991 -0.137488,0.496775 -0.09269,0.750343 0.04479,0.253501 0.16463,0.488792 0.344804,0.676956 l 11.684555,12.198641 c 0.253149,0.264284 0.559238,0.475067 0.899363,0.619465 0.340193,0.144326 0.707137,0.219185 1.078212,0.219745 H 84.50843 c 0.264075,0 0.522404,-0.07513 0.743411,-0.216245 0.220586,-0.141105 0.394253,-0.341944 0.499996,-0.577867 0.105041,-0.235991 0.137254,-0.496775 0.09245,-0.750343 C 85.799466,49.831675 85.67972,49.596384 85.49975,49.40822 Z M 16.491622,28.447253 h 55.348765 c 0.371986,1.41e-4 0.74012,-0.07423 1.081363,-0.218625 0.341244,-0.144397 0.648385,-0.355669 0.902164,-0.620653 L 85.499731,15.409327 c 0.179971,-0.188108 0.299717,-0.423394 0.344534,-0.676948 0.04482,-0.253557 0.0126,-0.514332 -0.09245,-0.750289 -0.105741,-0.235958 -0.27941,-0.436819 -0.499996,-0.577906 -0.221007,-0.141088 -0.479337,-0.216253 -0.743412,-0.216262 H 29.162719 c -0.371076,6.16e-4 -0.73802,0.07542 -1.078213,0.219779 -0.340125,0.144364 -0.646213,0.355207 -0.899363,0.619487 L 15.5036,26.225843 c -0.179999,0.187883 -0.299789,0.422966 -0.344679,0.676184 -0.04489,0.25329 -0.01293,0.513862 0.09197,0.749716 0.104897,0.235852 0.278167,0.43669 0.498561,0.578006 0.220394,0.141314 0.478325,0.216875 0.742168,0.217504 z"
      fill="url(#paint0_linear_174_4403)"
      id="path1"
      style="fill:url(#paint0_linear_174_4403);stroke-width:0.700275" />
   <defs
      id="defs6">
      <linearGradient
         id="paint0_linear_174_4403"
         x1="8.5255804"
         y1="90.097298"
         x2="88.993301"
         y2="-3.0162201"
         gradientUnits="userSpaceOnUse"
         gradientTransform="matrix(0.70027449,0,0,0.70027449,15.136149,13.187922)">
         <stop
            offset="0.08"
            stop-color="#9945FF"
            id="stop1" />
         <stop
            offset="0.3"
            stop-color="#8752F3"
            id="stop2" />
         <stop
            offset="0.5"
            stop-color="#5497D5"
            id="stop3" />
         <stop
            offset="0.6"
            stop-color="#43B4CA"
            id="stop4" />
         <stop
            offset="0.72"
            stop-color="#28E0B9"
            id="stop5" />
         <stop
            offset="0.97"
            stop-color="#19FB9B"
            id="stop6" />
      </linearGradient>
   </defs>
</svg>